<svg xmlns="http://www.w3.org/2000/svg" version="1.1" x="0" y="0" width="681.64" height="356" viewBox="0 0 681.64 356" enable-background="new 0 0 681.636 356" xml:space="preserve"><path fill="#230088" d="M176.89 322.17c-80.69 0-146.11-64.55-146.11-144.17S96.2 33.83 176.89 33.83c54.09 0 101.31 29 126.57 72.11C278.83 43.53 223.2 0 158.5 0 70.96 0 0 79.69 0 178s70.96 178 158.5 178c64.69 0 120.33-43.53 144.96-105.93C278.2 293.17 230.98 322.17 176.89 322.17z"/><path fill="#230088" d="M72.46 157.28c0-2.06-0.12-3.82-0.35-5.28 -0.23-1.46-0.68-2.66-1.35-3.59 -0.66-0.93-1.61-1.65-2.84-2.14 -1.23-0.5-2.88-0.81-4.93-0.95 -0.4 0-0.7-0.18-0.9-0.55 -0.2-0.36-0.3-0.75-0.3-1.15 0-0.4 0.1-0.76 0.3-1.1 0.2-0.33 0.5-0.5 0.9-0.5 2.13 0 4.55 0.1 7.28 0.3 2.73 0.2 5.28 0.3 7.68 0.3 1.4 0 2.71-0.03 3.94-0.1 1.23-0.06 2.42-0.13 3.59-0.2 1.16-0.06 2.34-0.13 3.54-0.2 1.2-0.06 2.49-0.1 3.89-0.1 0.4 0 0.68 0.17 0.85 0.5 0.17 0.33 0.23 0.7 0.2 1.1 -0.03 0.4-0.15 0.78-0.35 1.15 -0.2 0.37-0.47 0.55-0.8 0.55 -2.06 0.13-3.72 0.42-4.99 0.85 -1.26 0.43-2.23 1.1-2.89 1.99 -0.67 0.9-1.1 2.08-1.3 3.54 -0.2 1.46-0.3 3.32-0.3 5.58v34.7c0 2.13 0.1 3.91 0.3 5.33 0.2 1.43 0.56 2.63 1.1 3.59 0.53 0.96 1.26 1.71 2.19 2.24 0.93 0.53 2.09 1 3.49 1.4 0.93 0.2 1.98 0.35 3.14 0.45 1.16 0.1 2.38 0.15 3.64 0.15 1.6 0 3.09-0.06 4.49-0.2 1.4-0.13 2.46-0.33 3.19-0.6 1.33-0.46 2.48-0.96 3.44-1.49 0.96-0.53 1.78-1.23 2.44-2.09 0.66-0.86 1.21-1.94 1.65-3.24 0.43-1.3 0.78-2.94 1.05-4.94 0.07-0.4 0.3-0.66 0.7-0.8 0.4-0.13 0.83-0.2 1.3-0.2 0.46 0 0.88 0.1 1.25 0.3 0.37 0.2 0.51 0.47 0.45 0.8 -0.33 2.79-0.63 5.4-0.9 7.83 -0.27 2.43-0.37 4.9-0.3 7.43 0 0.2-0.13 0.48-0.4 0.85 -0.27 0.37-0.9 0.55-1.89 0.55H77.44c-2.59 0-5.08 0.08-7.48 0.25 -2.39 0.17-4.75 0.31-7.08 0.45 -0.47 0-0.81-0.17-1.05-0.5 -0.23-0.33-0.35-0.7-0.35-1.1 0-0.4 0.12-0.78 0.35-1.15 0.23-0.36 0.58-0.58 1.05-0.65 2.06-0.26 3.72-0.55 4.99-0.85 1.26-0.3 2.23-0.76 2.89-1.4 0.66-0.63 1.11-1.56 1.35-2.79 0.23-1.23 0.35-2.94 0.35-5.13V157.38 157.28zM159.1 198.56c0 2.33 0.22 3.96 0.65 4.89 0.43 0.93 1.28 1.4 2.54 1.4 0.73 0 1.33-0.08 1.8-0.25 0.46-0.16 1.13-0.51 1.99-1.05 0.2-0.13 0.41-0.13 0.65 0 0.23 0.14 0.43 0.32 0.6 0.55 0.17 0.23 0.28 0.5 0.35 0.8 0.07 0.3 0 0.55-0.2 0.75 -2.59 3.13-5.65 4.69-9.17 4.69 -1.93 0-3.57-0.52-4.94-1.55 -1.36-1.03-2.38-2.24-3.04-3.64 -0.13-0.33-0.33-0.36-0.6-0.1 -1.73 1.53-3.74 2.79-6.03 3.79 -2.29 1-5.17 1.5-8.62 1.5 -3.79 0-6.71-1.01-8.77-3.04 -2.06-2.03-3.09-4.9-3.09-8.62 0-4.79 2.23-8.46 6.68-11.02 4.45-2.56 10.93-3.84 19.44-3.84 0.13 0 0.23-0.16 0.3-0.5 0.07-0.33 0.1-1.1 0.1-2.29v-2.69c0-1.66-0.13-3.22-0.4-4.69 -0.27-1.46-0.71-2.74-1.35-3.84 -0.63-1.1-1.51-1.96-2.64-2.59 -1.13-0.63-2.53-0.95-4.19-0.95 -2.46 0-4.45 0.48-5.98 1.45 -1.53 0.96-2.29 2.21-2.29 3.74 0 0.73 0.23 1.45 0.7 2.14 0.46 0.7 0.7 1.41 0.7 2.14 0 0.93-0.47 1.83-1.4 2.69 -0.93 0.87-2.06 1.3-3.39 1.3 -1.79 0-3.07-0.48-3.84-1.44 -0.76-0.96-1.15-2.14-1.15-3.54 0-1.66 0.46-3.24 1.4-4.74 0.93-1.5 2.19-2.77 3.79-3.84 1.6-1.06 3.46-1.91 5.58-2.54 2.13-0.63 4.35-0.95 6.68-0.95 5.32 0 9.51 1.23 12.56 3.69 3.06 2.46 4.59 6.55 4.59 12.26V198.56zM149.73 188.69c0-0.73-0.03-1.18-0.1-1.35 -0.07-0.16-0.23-0.25-0.5-0.25 -5.45 0.47-9.49 1.61-12.11 3.44 -2.63 1.83-3.94 4.17-3.94 7.03 0 1.99 0.5 3.67 1.5 5.04s2.66 2.04 4.99 2.04c1.53 0 3.14-0.3 4.84-0.9 1.7-0.6 3.21-1.46 4.54-2.59 0.53-0.53 0.8-1.06 0.8-1.59V188.69zM197.19 196.46c0.2 0.4 0.45 0.56 0.75 0.5 0.3-0.06 0.51-0.23 0.65-0.5 2.06-4.05 3.87-7.96 5.43-11.71 1.56-3.75 2.94-7.36 4.14-10.82 0.46-1.13 0.7-2.13 0.7-2.99 0-0.73-0.18-1.33-0.55-1.79 -0.37-0.46-0.83-0.83-1.4-1.1 -0.56-0.26-1.16-0.46-1.79-0.6 -0.63-0.13-1.18-0.23-1.65-0.3 -0.4-0.06-0.68-0.25-0.85-0.55 -0.17-0.3-0.25-0.61-0.25-0.95 0-0.33 0.1-0.63 0.3-0.9 0.2-0.26 0.46-0.4 0.8-0.4 1.26 0 2.56 0.08 3.89 0.25 1.33 0.17 2.66 0.25 3.99 0.25 1.53 0 3.09-0.08 4.69-0.25 1.6-0.17 2.86-0.25 3.79-0.25 0.33 0 0.58 0.13 0.75 0.4 0.17 0.27 0.25 0.6 0.25 1 0 0.33-0.08 0.65-0.25 0.95 -0.17 0.3-0.42 0.45-0.75 0.45 -1 0.13-1.83 0.37-2.49 0.7 -0.66 0.33-1.23 0.81-1.69 1.45 -0.47 0.63-0.93 1.43-1.4 2.39 -0.47 0.96-1 2.11-1.59 3.44 -1.93 4.19-3.92 8.66-5.98 13.41 -2.06 4.75-4.25 9.62-6.58 14.61 -2.13 4.65-4.3 9.22-6.53 13.71 -2.23 4.49-4.37 8.69-6.43 12.61 -0.53 1-1.2 2.14-1.99 3.44 -0.8 1.3-1.74 2.52-2.84 3.69 -1.1 1.16-2.34 2.14-3.74 2.94s-2.93 1.2-4.59 1.2c-1.53 0-2.99-0.42-4.39-1.25 -1.4-0.83-2.09-2.18-2.09-4.04 0-1.4 0.43-2.59 1.3-3.59 0.86-1 1.99-1.5 3.39-1.5 0.6 0 1.06 0.12 1.4 0.35 0.33 0.23 0.65 0.48 0.95 0.75 0.3 0.27 0.63 0.52 1 0.75 0.37 0.23 0.81 0.35 1.35 0.35 0.73 0 1.56-0.47 2.49-1.4 0.93-0.93 1.91-2.11 2.94-3.54 1.03-1.43 2.06-3.02 3.09-4.78 1.03-1.76 1.98-3.47 2.84-5.13 0.86-1.66 1.61-3.16 2.24-4.49 0.63-1.33 1.08-2.29 1.35-2.89 0.33-0.8 0.5-1.49 0.5-2.09 0-0.66-0.13-1.26-0.4-1.79 -2.13-4.39-4.49-9.27-7.08-14.66s-5.05-10.77-7.38-16.15c-0.67-1.59-1.26-2.89-1.79-3.89 -0.53-1-1.08-1.79-1.64-2.39 -0.56-0.6-1.21-1.06-1.94-1.4 -0.73-0.33-1.66-0.6-2.79-0.8 -0.33-0.06-0.58-0.25-0.75-0.55 -0.16-0.3-0.25-0.61-0.25-0.95 0-0.33 0.1-0.63 0.3-0.9 0.2-0.26 0.46-0.4 0.8-0.4 2.06 0 4.04 0.08 5.93 0.25 1.89 0.17 3.8 0.25 5.73 0.25 1.93 0 3.82-0.08 5.68-0.25 1.86-0.17 3.76-0.25 5.68-0.25 0.33 0 0.58 0.13 0.75 0.4 0.17 0.27 0.25 0.56 0.25 0.9 0 0.33-0.08 0.65-0.25 0.95 -0.17 0.3-0.42 0.48-0.75 0.55 -2.13 0.27-3.62 0.67-4.49 1.2 -0.86 0.53-1.3 1.26-1.3 2.19 0 1.33 0.3 2.73 0.9 4.19 1.4 3.72 2.92 7.45 4.59 11.17C193.76 189.62 195.46 193.14 197.19 196.46zM283.43 210.32c-10.44 0-18.61-2.96-24.53-8.87 -5.92-5.91-8.87-14.75-8.87-26.52 0-5.05 0.83-9.7 2.49-13.96 1.66-4.25 3.97-7.91 6.93-10.97 2.96-3.06 6.5-5.43 10.62-7.13 4.12-1.69 8.67-2.54 13.66-2.54 4.85 0 9.31 0.82 13.36 2.44 4.05 1.63 7.54 3.94 10.47 6.93 2.92 2.99 5.2 6.6 6.83 10.82 1.63 4.22 2.44 8.92 2.44 14.11 0 5.78-0.88 10.89-2.64 15.3 -1.76 4.42-4.15 8.14-7.18 11.17 -3.02 3.03-6.56 5.32-10.62 6.88C292.33 209.54 288.01 210.32 283.43 210.32zM283.83 206.14c3.26 0 6.13-0.86 8.63-2.59 2.49-1.73 4.6-4 6.33-6.83 1.73-2.82 3.04-6.08 3.94-9.77 0.9-3.69 1.35-7.53 1.35-11.52 0-3.85-0.35-7.64-1.05-11.37 -0.7-3.72-1.84-7.03-3.44-9.92 -1.59-2.89-3.72-5.22-6.38-6.98 -2.66-1.76-5.92-2.64-9.77-2.64 -3.59 0-6.7 0.9-9.32 2.69 -2.63 1.8-4.77 4.14-6.43 7.03 -1.66 2.89-2.89 6.18-3.69 9.87 -0.8 3.69-1.2 7.43-1.2 11.22 0 3.99 0.33 7.84 1 11.57 0.66 3.72 1.79 7 3.39 9.82 1.6 2.83 3.74 5.1 6.43 6.83C276.3 205.27 279.7 206.14 283.83 206.14zM329.79 158.78c0-2.86-0.03-5.15-0.1-6.88 -0.07-1.73-0.32-3.04-0.75-3.94 -0.43-0.9-1.11-1.51-2.04-1.84 -0.93-0.33-2.26-0.6-3.99-0.8 -0.33 0-0.58-0.16-0.75-0.5 -0.17-0.33-0.27-0.66-0.3-1 -0.03-0.33 0.03-0.66 0.2-1 0.17-0.33 0.45-0.5 0.85-0.5 1.93-0.13 4.1-0.33 6.53-0.6 2.43-0.26 4.87-0.76 7.33-1.5 0.93-0.26 1.55-0.21 1.85 0.15 0.3 0.37 0.48 0.75 0.55 1.15v28.62c0 0.13 0.03 0.2 0.1 0.2 0.13 0 0.23-0.06 0.3-0.2 1.26-1.93 3.07-3.65 5.43-5.18 2.36-1.53 5.27-2.29 8.72-2.29 2.86 0 5.39 0.62 7.58 1.84 2.19 1.23 4.04 2.86 5.53 4.89 1.5 2.03 2.63 4.37 3.39 7.03 0.76 2.66 1.15 5.42 1.15 8.28 0 4.39-0.68 8.19-2.04 11.42 -1.36 3.23-3.21 5.88-5.53 7.98s-5.02 3.66-8.08 4.69c-3.06 1.03-6.28 1.55-9.67 1.55 -2.33 0-4.82-0.15-7.48-0.45 -2.66-0.3-5.58-1.01-8.77-2.14V158.78zM339.16 199.35c0 0.4 0.23 1 0.7 1.8 0.46 0.8 1.11 1.56 1.94 2.29 0.83 0.73 1.83 1.38 2.99 1.94 1.16 0.56 2.44 0.85 3.84 0.85 2.39 0 4.39-0.55 5.98-1.65 1.6-1.1 2.86-2.59 3.79-4.49 0.93-1.89 1.58-4.07 1.94-6.53 0.37-2.46 0.55-5.05 0.55-7.78 0-2.33-0.13-4.5-0.4-6.53 -0.27-2.03-0.75-3.8-1.44-5.33 -0.7-1.53-1.68-2.74-2.94-3.64 -1.26-0.9-2.93-1.35-4.99-1.35 -1.73 0-3.32 0.33-4.78 1 -1.46 0.67-2.73 1.46-3.79 2.39 -1.06 0.93-1.89 1.96-2.49 3.09 -0.6 1.13-0.9 2.13-0.9 2.99V199.35zM409.65 164.16c-0.2 0.73-0.38 1.63-0.55 2.69 -0.17 1.06-0.25 2.19-0.25 3.39 0 1.26 0.03 2.58 0.1 3.94 0.07 1.36 0.1 2.41 0.1 3.14 0 0.2-0.13 0.37-0.4 0.5 -0.27 0.13-0.56 0.22-0.9 0.25 -0.33 0.03-0.63 0-0.9-0.1 -0.27-0.1-0.43-0.25-0.5-0.45 -0.73-3.52-1.93-6.23-3.59-8.12 -1.66-1.89-4.32-2.84-7.98-2.84 -2.46 0-4.49 0.62-6.08 1.85 -1.6 1.23-2.39 2.88-2.39 4.93 0 1.73 0.66 3.06 1.99 3.99 1.33 0.93 3.09 1.79 5.28 2.59 0.93 0.33 2.04 0.75 3.34 1.25s2.34 0.92 3.14 1.25c1.73 0.8 3.34 1.63 4.84 2.49 1.5 0.87 2.79 1.88 3.89 3.04 1.1 1.16 1.96 2.48 2.59 3.94 0.63 1.46 0.95 3.16 0.95 5.08 0 2.53-0.53 4.64-1.6 6.33 -1.06 1.7-2.43 3.06-4.09 4.09 -1.66 1.03-3.56 1.78-5.68 2.24 -2.13 0.47-4.22 0.7-6.28 0.7 -1.73 0-3.66-0.2-5.78-0.6 -2.13-0.4-3.99-0.96-5.58-1.69 -0.4-0.13-0.81-0.06-1.25 0.2 -0.43 0.27-0.72 0.77-0.85 1.5 0 0.2-0.15 0.33-0.45 0.4 -0.3 0.07-0.61 0.1-0.95 0.1 -0.27 0-0.53-0.05-0.8-0.15 -0.27-0.1-0.4-0.25-0.4-0.45 0-0.53 0.07-1.26 0.2-2.19 0.13-0.93 0.2-1.79 0.2-2.59 0-0.8-0.05-1.68-0.15-2.64 -0.1-0.96-0.2-1.91-0.3-2.84 -0.1-0.93-0.18-1.76-0.25-2.49 -0.07-0.73-0.1-1.26-0.1-1.59 0-0.27 0.13-0.46 0.4-0.6 0.27-0.13 0.56-0.21 0.9-0.25 0.33-0.03 0.65 0 0.95 0.1s0.48 0.28 0.55 0.55c0.46 1.93 1.06 3.62 1.79 5.09 0.73 1.46 1.65 2.69 2.74 3.69s2.43 1.74 3.99 2.24c1.56 0.5 3.44 0.75 5.63 0.75 2.39 0 4.34-0.66 5.83-1.99 1.5-1.33 2.24-3.19 2.24-5.58 0-2.13-0.75-3.8-2.24-5.03 -1.5-1.23-3.24-2.31-5.23-3.24 -0.93-0.4-1.88-0.8-2.84-1.2 -0.96-0.4-1.94-0.8-2.94-1.2 -1.46-0.6-2.91-1.21-4.34-1.84 -1.43-0.63-2.69-1.41-3.79-2.34 -1.1-0.93-1.98-2.09-2.64-3.49 -0.66-1.4-1-3.12-1-5.18 0-2.39 0.51-4.42 1.55-6.08 1.03-1.66 2.36-3.01 3.99-4.04 1.63-1.03 3.44-1.78 5.43-2.24 1.99-0.46 3.95-0.7 5.88-0.7 1.86 0 3.51 0.22 4.94 0.65 1.43 0.43 3.01 1.21 4.74 2.34 0.27 0.13 0.61 0.12 1.05-0.05 0.43-0.16 0.78-0.71 1.05-1.64 0.07-0.26 0.27-0.43 0.6-0.5 0.33-0.06 0.66-0.08 1-0.05 0.33 0.03 0.63 0.12 0.9 0.25C409.62 163.79 409.72 163.96 409.65 164.16zM429.49 183.9c-0.33 0-0.52 0.12-0.55 0.35 -0.03 0.23-0.05 0.52-0.05 0.85 0 3.46 0.38 6.38 1.15 8.77 0.76 2.39 1.83 4.34 3.19 5.83 1.36 1.5 2.99 2.58 4.89 3.24 1.9 0.67 3.94 1 6.13 1 2.26 0 4.45-0.18 6.58-0.55 2.13-0.36 3.95-1.18 5.48-2.44 0.33-0.26 0.68-0.36 1.05-0.3 0.36 0.07 0.66 0.23 0.9 0.5 0.23 0.27 0.38 0.56 0.45 0.9 0.07 0.33 0 0.63-0.2 0.9 -2.13 2.79-4.52 4.72-7.18 5.78 -2.66 1.06-5.95 1.6-9.87 1.6 -3.99 0-7.43-0.6-10.32-1.79s-5.28-2.87-7.18-5.03c-1.89-2.16-3.29-4.69-4.19-7.58 -0.9-2.89-1.35-6.03-1.35-9.42 0-3.26 0.55-6.35 1.65-9.27 1.1-2.92 2.64-5.45 4.64-7.58 1.99-2.13 4.35-3.82 7.08-5.08 2.73-1.26 5.75-1.89 9.07-1.89 2.79 0 5.33 0.48 7.63 1.45 2.29 0.96 4.24 2.29 5.83 3.99 1.6 1.7 2.84 3.72 3.74 6.08 0.9 2.36 1.35 4.9 1.35 7.63 0 1.4-0.5 2.09-1.5 2.09H429.49zM447.74 180.41c0.93 0 1.46-0.33 1.6-1 0.13-0.66 0.2-1.46 0.2-2.39 0-1.4-0.22-2.74-0.65-4.04 -0.43-1.3-1.05-2.44-1.84-3.44s-1.76-1.79-2.89-2.39c-1.13-0.6-2.43-0.9-3.89-0.9 -1.79 0-3.34 0.32-4.64 0.95 -1.3 0.63-2.39 1.46-3.29 2.49 -0.9 1.03-1.58 2.24-2.04 3.64 -0.47 1.4-0.8 2.86-1 4.39 -0.13 0.8-0.18 1.45-0.15 1.94 0.03 0.5 0.18 0.75 0.45 0.75H447.74zM482.53 197.26c0 1.66 0.05 3.06 0.15 4.19 0.1 1.13 0.45 2.06 1.05 2.79 0.6 0.73 1.53 1.3 2.79 1.7 1.26 0.4 3.09 0.7 5.48 0.9 0.4 0.07 0.7 0.25 0.9 0.55 0.2 0.3 0.3 0.65 0.3 1.05 0 0.33-0.1 0.65-0.3 0.95 -0.2 0.3-0.5 0.45-0.9 0.45 -2.86 0-5.38-0.12-7.58-0.35s-4.29-0.35-6.28-0.35c-2.13 0-4.24 0.12-6.33 0.35s-4.2 0.35-6.33 0.35c-0.33 0-0.6-0.15-0.8-0.45 -0.2-0.3-0.3-0.61-0.3-0.95 0-0.4 0.1-0.75 0.3-1.05 0.2-0.3 0.5-0.48 0.9-0.55 1.86-0.2 3.31-0.5 4.34-0.9 1.03-0.4 1.78-0.95 2.24-1.65 0.46-0.7 0.75-1.56 0.85-2.59 0.1-1.03 0.15-2.31 0.15-3.84v-14.56c0-3.26-0.07-5.83-0.2-7.73 -0.13-1.89-0.45-3.36-0.95-4.39 -0.5-1.03-1.28-1.71-2.34-2.04 -1.06-0.33-2.53-0.56-4.39-0.7 -0.33 0-0.58-0.16-0.75-0.5 -0.17-0.33-0.25-0.66-0.25-1 0-0.33 0.08-0.66 0.25-1 0.17-0.33 0.45-0.5 0.85-0.5 1.33-0.13 3.17-0.28 5.53-0.45 2.36-0.16 4.77-0.58 7.23-1.25 0.93-0.26 1.7-0.3 2.29-0.1 0.6 0.2 0.86 0.77 0.8 1.7l-0.2 6.38c0 0.13 0.03 0.22 0.1 0.25 0.07 0.03 0.17-0.02 0.3-0.15 1.4-2.79 3.11-5.02 5.14-6.68 2.03-1.66 4.74-2.49 8.13-2.49 2.79 0 4.85 0.72 6.18 2.14 1.33 1.43 1.99 3.18 1.99 5.23 0 1.13-0.43 2.16-1.3 3.09 -0.86 0.93-2.09 1.4-3.69 1.4 -1.53 0-2.59-0.36-3.19-1.1 -0.6-0.73-0.9-1.53-0.9-2.39 0-0.93-0.18-1.66-0.55-2.19 -0.37-0.53-1.15-0.8-2.34-0.8 -1.26 0-2.41 0.42-3.44 1.25 -1.03 0.83-1.91 1.81-2.64 2.94 -0.73 1.13-1.3 2.29-1.69 3.49s-0.6 2.13-0.6 2.79V197.26zM544.85 177.02c-4.45 10.97-9.21 22.17-14.26 33.6 -0.07 0.13-0.25 0.25-0.55 0.35 -0.3 0.1-0.61 0.15-0.95 0.15 -0.33 0-0.65-0.05-0.95-0.15 -0.3-0.1-0.48-0.22-0.55-0.35 -2.86-5.78-5.53-11.38-8.03-16.8 -2.49-5.42-5-11.25-7.53-17.5 -0.66-1.59-1.25-2.92-1.74-3.99 -0.5-1.06-1.03-1.93-1.59-2.59 -0.57-0.66-1.23-1.18-1.99-1.54 -0.77-0.36-1.74-0.65-2.94-0.85 -0.33-0.06-0.6-0.25-0.8-0.55 -0.2-0.3-0.3-0.61-0.3-0.95 0-0.4 0.07-0.75 0.2-1.05s0.36-0.45 0.7-0.45c1.93 0 3.8 0.12 5.63 0.35 1.83 0.23 3.74 0.35 5.73 0.35 1.93 0 3.84-0.11 5.73-0.35 1.9-0.23 3.81-0.35 5.73-0.35 0.33 0 0.58 0.15 0.75 0.45 0.17 0.3 0.25 0.65 0.25 1.05 0 0.33-0.08 0.67-0.25 1 -0.17 0.33-0.42 0.5-0.75 0.5 -2.06 0.13-3.54 0.52-4.44 1.15 -0.9 0.63-1.35 1.55-1.35 2.74 0 1 0.27 2.23 0.8 3.69 1.53 4.12 3.12 8.13 4.79 12.01 1.66 3.89 3.36 7.56 5.09 11.02 0.13 0.33 0.33 0.48 0.6 0.45 0.27-0.03 0.46-0.18 0.6-0.45 0.66-1.46 1.43-3.26 2.29-5.38 0.86-2.13 1.71-4.3 2.54-6.53 0.83-2.23 1.61-4.44 2.34-6.63 0.73-2.19 1.33-4.09 1.8-5.68 0.27-0.86 0.4-1.69 0.4-2.49 0-1.66-0.5-2.69-1.49-3.09 -1-0.4-2.03-0.66-3.09-0.8 -0.4-0.06-0.7-0.26-0.9-0.6 -0.2-0.33-0.28-0.66-0.25-1 0.03-0.33 0.15-0.65 0.35-0.95s0.46-0.45 0.8-0.45c1.46 0 2.82 0.12 4.09 0.35 1.26 0.23 2.59 0.35 3.99 0.35 1.46 0 3.01-0.11 4.64-0.35 1.63-0.23 2.91-0.35 3.84-0.35 0.4 0 0.68 0.15 0.85 0.45s0.25 0.65 0.25 1.05c0 0.33-0.08 0.67-0.25 1 -0.17 0.33-0.41 0.5-0.75 0.5 -1.33 0.07-2.44 0.37-3.34 0.9 -0.9 0.53-1.68 1.21-2.34 2.04 -0.66 0.83-1.26 1.83-1.79 2.99C545.91 174.45 545.38 175.69 544.85 177.02zM568.77 183.9c-0.33 0-0.52 0.12-0.55 0.35 -0.03 0.23-0.05 0.52-0.05 0.85 0 3.46 0.38 6.38 1.15 8.77 0.76 2.39 1.83 4.34 3.19 5.83 1.36 1.5 2.99 2.58 4.89 3.24 1.9 0.67 3.94 1 6.13 1 2.26 0 4.45-0.18 6.58-0.55 2.13-0.36 3.95-1.18 5.48-2.44 0.33-0.26 0.68-0.36 1.05-0.3 0.36 0.07 0.66 0.23 0.9 0.5 0.23 0.27 0.38 0.56 0.45 0.9 0.07 0.33 0 0.63-0.2 0.9 -2.13 2.79-4.52 4.72-7.18 5.78 -2.66 1.06-5.95 1.6-9.87 1.6 -3.99 0-7.43-0.6-10.32-1.79s-5.28-2.87-7.18-5.03c-1.89-2.16-3.29-4.69-4.19-7.58 -0.9-2.89-1.35-6.03-1.35-9.42 0-3.26 0.55-6.35 1.65-9.27 1.1-2.92 2.64-5.45 4.64-7.58 1.99-2.13 4.35-3.82 7.08-5.08 2.73-1.26 5.75-1.89 9.07-1.89 2.79 0 5.33 0.48 7.63 1.45 2.29 0.96 4.24 2.29 5.83 3.99 1.6 1.7 2.84 3.72 3.74 6.08 0.9 2.36 1.35 4.9 1.35 7.63 0 1.4-0.5 2.09-1.5 2.09H568.77zM587.02 180.41c0.93 0 1.46-0.33 1.6-1 0.13-0.66 0.2-1.46 0.2-2.39 0-1.4-0.22-2.74-0.65-4.04 -0.43-1.3-1.05-2.44-1.84-3.44s-1.76-1.79-2.89-2.39c-1.13-0.6-2.43-0.9-3.89-0.9 -1.79 0-3.34 0.32-4.64 0.95 -1.3 0.63-2.39 1.46-3.29 2.49 -0.9 1.03-1.58 2.24-2.04 3.64 -0.47 1.4-0.8 2.86-1 4.39 -0.13 0.8-0.18 1.45-0.15 1.94 0.03 0.5 0.18 0.75 0.45 0.75H587.02zM621.82 197.26c0 1.66 0.05 3.06 0.15 4.19 0.1 1.13 0.45 2.06 1.05 2.79 0.6 0.73 1.53 1.3 2.79 1.7 1.26 0.4 3.09 0.7 5.48 0.9 0.4 0.07 0.7 0.25 0.9 0.55 0.2 0.3 0.3 0.65 0.3 1.05 0 0.33-0.1 0.65-0.3 0.95 -0.2 0.3-0.5 0.45-0.9 0.45 -2.86 0-5.38-0.12-7.58-0.35s-4.29-0.35-6.28-0.35c-2.13 0-4.24 0.12-6.33 0.35s-4.2 0.35-6.33 0.35c-0.33 0-0.6-0.15-0.8-0.45 -0.2-0.3-0.3-0.61-0.3-0.95 0-0.4 0.1-0.75 0.3-1.05 0.2-0.3 0.5-0.48 0.9-0.55 1.86-0.2 3.31-0.5 4.34-0.9 1.03-0.4 1.78-0.95 2.24-1.65 0.46-0.7 0.75-1.56 0.85-2.59 0.1-1.03 0.15-2.31 0.15-3.84v-14.56c0-3.26-0.07-5.83-0.2-7.73 -0.13-1.89-0.45-3.36-0.95-4.39 -0.5-1.03-1.28-1.71-2.34-2.04 -1.06-0.33-2.53-0.56-4.39-0.7 -0.33 0-0.58-0.16-0.75-0.5 -0.17-0.33-0.25-0.66-0.25-1 0-0.33 0.08-0.66 0.25-1 0.17-0.33 0.45-0.5 0.85-0.5 1.33-0.13 3.17-0.28 5.53-0.45 2.36-0.16 4.77-0.58 7.23-1.25 0.93-0.26 1.7-0.3 2.29-0.1 0.6 0.2 0.86 0.77 0.8 1.7l-0.2 6.38c0 0.13 0.03 0.22 0.1 0.25 0.07 0.03 0.17-0.02 0.3-0.15 1.4-2.79 3.11-5.02 5.14-6.68 2.03-1.66 4.74-2.49 8.13-2.49 2.79 0 4.85 0.72 6.18 2.14 1.33 1.43 1.99 3.18 1.99 5.23 0 1.13-0.43 2.16-1.3 3.09 -0.86 0.93-2.09 1.4-3.69 1.4 -1.53 0-2.59-0.36-3.19-1.1 -0.6-0.73-0.9-1.53-0.9-2.39 0-0.93-0.18-1.66-0.55-2.19 -0.37-0.53-1.15-0.8-2.34-0.8 -1.26 0-2.41 0.42-3.44 1.25 -1.03 0.83-1.91 1.81-2.64 2.94 -0.73 1.13-1.3 2.29-1.69 3.49s-0.6 2.13-0.6 2.79V197.26zM676.65 164.16c-0.2 0.73-0.38 1.63-0.55 2.69 -0.17 1.06-0.25 2.19-0.25 3.39 0 1.26 0.03 2.58 0.1 3.94 0.07 1.36 0.1 2.41 0.1 3.14 0 0.2-0.13 0.37-0.4 0.5 -0.27 0.13-0.56 0.22-0.9 0.25 -0.33 0.03-0.63 0-0.9-0.1 -0.27-0.1-0.43-0.25-0.5-0.45 -0.73-3.52-1.93-6.23-3.59-8.12 -1.66-1.89-4.32-2.84-7.98-2.84 -2.46 0-4.49 0.62-6.08 1.85 -1.6 1.23-2.39 2.88-2.39 4.93 0 1.73 0.66 3.06 1.99 3.99 1.33 0.93 3.09 1.79 5.28 2.59 0.93 0.33 2.04 0.75 3.34 1.25s2.34 0.92 3.14 1.25c1.73 0.8 3.34 1.63 4.84 2.49 1.5 0.87 2.79 1.88 3.89 3.04 1.1 1.16 1.96 2.48 2.59 3.94 0.63 1.46 0.95 3.16 0.95 5.08 0 2.53-0.53 4.64-1.6 6.33 -1.06 1.7-2.43 3.06-4.09 4.09 -1.66 1.03-3.56 1.78-5.68 2.24 -2.13 0.47-4.22 0.7-6.28 0.7 -1.73 0-3.66-0.2-5.78-0.6 -2.13-0.4-3.99-0.96-5.58-1.69 -0.4-0.13-0.81-0.06-1.25 0.2 -0.43 0.27-0.72 0.77-0.85 1.5 0 0.2-0.15 0.33-0.45 0.4 -0.3 0.07-0.61 0.1-0.95 0.1 -0.27 0-0.53-0.05-0.8-0.15 -0.27-0.1-0.4-0.25-0.4-0.45 0-0.53 0.07-1.26 0.2-2.19 0.13-0.93 0.2-1.79 0.2-2.59 0-0.8-0.05-1.68-0.15-2.64 -0.1-0.96-0.2-1.91-0.3-2.84 -0.1-0.93-0.18-1.76-0.25-2.49 -0.07-0.73-0.1-1.26-0.1-1.59 0-0.27 0.13-0.46 0.4-0.6 0.27-0.13 0.56-0.21 0.9-0.25 0.33-0.03 0.65 0 0.95 0.1s0.48 0.28 0.55 0.55c0.46 1.93 1.06 3.62 1.79 5.09 0.73 1.46 1.65 2.69 2.74 3.69s2.43 1.74 3.99 2.24c1.56 0.5 3.44 0.75 5.63 0.75 2.39 0 4.34-0.66 5.83-1.99 1.5-1.33 2.24-3.19 2.24-5.58 0-2.13-0.75-3.8-2.24-5.03 -1.5-1.23-3.24-2.31-5.23-3.24 -0.93-0.4-1.88-0.8-2.84-1.2 -0.96-0.4-1.94-0.8-2.94-1.2 -1.46-0.6-2.91-1.21-4.34-1.84 -1.43-0.63-2.69-1.41-3.79-2.34 -1.1-0.93-1.98-2.09-2.64-3.49 -0.66-1.4-1-3.12-1-5.18 0-2.39 0.51-4.42 1.55-6.08 1.03-1.66 2.36-3.01 3.99-4.04 1.63-1.03 3.44-1.78 5.43-2.24 1.99-0.46 3.95-0.7 5.88-0.7 1.86 0 3.51 0.22 4.94 0.65 1.43 0.43 3.01 1.21 4.74 2.34 0.27 0.13 0.61 0.12 1.05-0.05 0.43-0.16 0.78-0.71 1.05-1.64 0.07-0.26 0.27-0.43 0.6-0.5 0.33-0.06 0.66-0.08 1-0.05 0.33 0.03 0.63 0.12 0.9 0.25C676.62 163.79 676.72 163.96 676.65 164.16z"/></svg>